<svg xmlns="http://www.w3.org/2000/svg" xmlns:xlink="http://www.w3.org/1999/xlink" width="75" height="75" preserveAspectRatio="xMidYMid meet" viewBox="0 0 24 24" style="-ms-transform: rotate(360deg); -webkit-transform: rotate(360deg); transform: rotate(360deg);"><g fill="none"><path d="M11.996 19.01a.75.75 0 0 1 .743.649l.007.102v1.5a.75.75 0 0 1-1.493.101l-.007-.101v-1.5a.75.75 0 0 1 .75-.75zm6.022-2.072l1.06 1.06a.75.75 0 1 1-1.06 1.061l-1.06-1.06a.75.75 0 0 1 1.06-1.061zm-10.983 0a.75.75 0 0 1 0 1.06L5.974 19.06a.75.75 0 0 1-1.06-1.06l1.06-1.061a.75.75 0 0 1 1.06 0zM12 6.475a5.525 5.525 0 1 1 0 11.05a5.525 5.525 0 0 1 0-11.05zm0 1.5a4.025 4.025 0 1 0 0 8.05a4.025 4.025 0 0 0 0-8.05zm9.25 3.293a.75.75 0 0 1 .102 1.493l-.102.007h-1.5a.75.75 0 0 1-.102-1.493l.102-.007h1.5zm-17-.029a.75.75 0 0 1 .102 1.494l-.102.006h-1.5a.75.75 0 0 1-.102-1.493l.102-.007h1.5zm1.64-6.37l.084.072l1.06 1.06a.75.75 0 0 1-.976 1.134l-.084-.073l-1.06-1.06a.75.75 0 0 1 .976-1.134zm13.188.072a.75.75 0 0 1 .073.977l-.073.084l-1.06 1.06a.75.75 0 0 1-1.133-.976l.072-.084l1.06-1.061a.75.75 0 0 1 1.061 0zM12 1.99a.75.75 0 0 1 .743.648l.007.102v1.5a.75.75 0 0 1-1.493.101l-.007-.102v-1.5a.75.75 0 0 1 .75-.75z" fill="black"/></g><rect x="0" y="0" width="24" height="24" fill="rgba(0, 0, 0, 0)" /></svg>