<svg xmlns="http://www.w3.org/2000/svg" xmlns:xlink="http://www.w3.org/1999/xlink" width="75" height="75" preserveAspectRatio="xMidYMid meet" viewBox="0 0 24 24" style="-ms-transform: rotate(360deg); -webkit-transform: rotate(360deg); transform: rotate(360deg);"><g fill="none"><path d="M12 4c3.169 0 4.966 2.098 5.227 4.63h.08A3.687 3.687 0 0 1 21 12.314a3.687 3.687 0 0 1-3.693 3.683h-.582l-1.582 2.634a.75.75 0 0 1-1.344-.658l.045-.092l1.149-1.884h-2.136l-1.582 2.634a.75.75 0 0 1-1.344-.658l.045-.092l1.149-1.884H8.988L7.406 18.63a.75.75 0 0 1-1.343-.658l.044-.092l1.149-1.884h-.563A3.687 3.687 0 0 1 3 12.313a3.687 3.687 0 0 1 3.692-3.682h.08C7.036 6.08 8.832 4 12 4zm0 1.498c-2.071 0-3.877 1.634-3.877 3.89c0 .357-.319.637-.684.637h-.69c-1.261 0-2.284 1.002-2.284 2.237s1.023 2.236 2.284 2.236h10.503c1.26 0 2.283-1.001 2.283-2.236c0-1.235-1.023-2.237-2.284-2.237h-.69c-.365 0-.684-.28-.684-.637c0-2.285-1.806-3.89-3.877-3.89z" fill="black"/></g><rect x="0" y="0" width="24" height="24" fill="rgba(0, 0, 0, 0)" /></svg>