<svg xmlns="http://www.w3.org/2000/svg" xmlns:xlink="http://www.w3.org/1999/xlink" width="32" height="32" preserveAspectRatio="xMidYMid meet" viewBox="0 0 32 32" style="-ms-transform: rotate(360deg); -webkit-transform: rotate(360deg); transform: rotate(360deg);"><path d="M17 28V17h1a2.002 2.002 0 0 0 2-2v-4a2.002 2.002 0 0 0-2-2h-4a2.002 2.002 0 0 0-2 2v4a2.002 2.002 0 0 0 2 2h1v11H2v2h28v-2zm-3-17h4l.002 4H14z" fill="black"/><path d="M9.332 18.217a7 7 0 0 1 0-10.434l1.334 1.49a5 5 0 0 0 0 7.453z" fill="black"/><path d="M22.667 18.217l-1.334-1.49a5 5 0 0 0 0-7.454l1.334-1.49a7 7 0 0 1 0 10.434z" fill="black"/><path d="M6.4 21.8a11.002 11.002 0 0 1 0-17.6l1.2 1.6a9 9 0 0 0 0 14.401z" fill="black"/><path d="M25.6 21.8l-1.2-1.6a9.001 9.001 0 0 0 0-14.401l1.2-1.6a11.002 11.002 0 0 1 0 17.601z" fill="black"/><rect x="0" y="0" width="32" height="32" fill="rgba(0, 0, 0, 0)" /></svg>